Coordinates
version=1
nRows=27
nColumns=12
inDegrees=yes

Units are S.I. units (second, meters, Newtons, ...)
Angles are in degrees

endheader
time	SC_y	SC_z	SC_x	AC_y	AC_z	AC_x	GH_y	GH_z	GH_yy	EL_x	PS_y
       0.0               -56.5          31.21          4.917          43.11         -8.846            1.5          22.69          69.37          169.7          134.6          118.2
    0.0335               -56.5           31.2          4.922          43.12         -8.848          1.498          22.67          69.37          169.7          134.6          118.2
   0.06701               -56.5           31.2          4.926          43.12         -8.849          1.496          22.64          69.36          169.7          134.6          118.2
    0.1005              -56.49          31.19          4.931          43.12         -8.851          1.493          22.62          69.35          169.7          134.6          118.2
     0.134              -56.49          31.18          4.936          43.13         -8.853          1.491           22.6          69.35          169.7          134.6          118.2
    0.1675              -56.48          31.18          4.942          43.13         -8.855          1.488          22.57          69.34          169.7          134.6          118.2
     0.201              -56.48          31.17          4.948          43.13         -8.857          1.485          22.54          69.33          169.7          134.6          118.2
    0.2345              -56.47          31.16          4.954          43.14         -8.859          1.482          22.51          69.32          169.7          134.6          118.1
     0.268              -56.46          31.15          4.961          43.14         -8.861          1.478          22.48          69.31          169.7          134.6          118.1
    0.3015              -56.46          31.15          4.968          43.15         -8.864          1.475          22.45           69.3          169.7          134.6          118.1
     0.335              -56.45          31.14          4.976          43.15         -8.867          1.471          22.41          69.29          169.6          134.5          118.1
    0.3685              -56.44          31.13          4.985          43.16          -8.87          1.467          22.37          69.28          169.6          134.5          118.1
     0.402              -56.44          31.11          4.994          43.16         -8.873          1.462          22.33          69.27          169.6          134.5          118.1
    0.4356              -56.43           31.1          5.004          43.17         -8.876          1.457          22.29          69.25          169.6          134.5          118.1
    0.4691              -56.42          31.09          5.014          43.18          -8.88          1.452          22.24          69.24          169.6          134.5          118.1
    0.5026              -56.41          31.08          5.026          43.18         -8.884          1.446          22.18          69.22          169.6          134.5          118.1
    0.5361               -56.4          31.06          5.038          43.19         -8.889           1.44          22.13           69.2          169.6          134.4          118.1
    0.5696              -56.39          31.04          5.052           43.2         -8.894          1.433          22.06          69.19          169.6          134.4          118.0
    0.6031              -56.37          31.03          5.067          43.21         -8.899          1.425          21.99          69.16          169.5          134.4          118.0
    0.6366              -56.36          31.01          5.083          43.22         -8.905          1.417          21.92          69.14          169.5          134.4          118.0
    0.6701              -56.34          30.99          5.101          43.23         -8.911          1.408          21.84          69.12          169.5          134.3          118.0
    0.7036              -56.33          30.96          5.121          43.25         -8.918          1.398          21.75          69.09          169.5          134.3          118.0
    0.7371              -56.31          30.94          5.143          43.26         -8.926          1.387          21.64          69.06          169.4          134.3          117.9
    0.7706              -56.29          30.91          5.167          43.27         -8.934          1.375          21.53          69.03          169.4          134.2          117.9
    0.8041              -56.26          30.87          5.194          43.29         -8.944          1.362          21.41          68.99          169.4          134.2          117.9
    0.8376              -56.24          30.84          5.224          43.31         -8.954          1.347          21.27          68.95          169.4          134.1          117.8
    0.8711              -56.21           30.8          5.257          43.33         -8.966           1.33          21.12           68.9          169.3          134.1          117.8
